<svg width="current" height="current" viewBox="0 0 24 24" fill="current" xmlns="http://www.w3.org/2000/svg">
<path d="M9 10V12H7V10H9ZM13 10V12H11V10H13ZM17 10V12H15V10H17ZM19 3C19.5304 3 20.0391 3.21071 20.4142 3.58579C20.7893 3.96086 21 4.46957 21 5V19C21 19.5304 20.7893 20.0391 20.4142 20.4142C20.0391 20.7893 19.5304 21 19 21H5C3.89 21 3 20.1 3 19V5C3 4.46957 3.21071 3.96086 3.58579 3.58579C3.96086 3.21071 4.46957 3 5 3H6V1H8V3H16V1H18V3H19ZM19 19V8H5V19H19ZM9 14V16H7V14H9ZM13 14V16H11V14H13ZM17 14V16H15V14H17Z" fill="current"/>
</svg>
