<svg width="current" height="current">
<?xml version="1.0" encoding="utf-8"?>
<!-- Generator: Adobe Illustrator 23.0.0, SVG Export Plug-In . SVG Version: 6.00 Build 0)  -->
<svg version="1.1" xmlns="http://www.w3.org/2000/svg" xmlns:xlink="http://www.w3.org/1999/xlink" x="0px" y="0px"
	 viewBox="0 0 595.3 465.5" style="enable-background:new 0 0 595.3 465.5;" xml:space="preserve">
<style type="text/css">
	.st0{fill:#FF9900;}
	.st1{fill:#FFFFFF;}
</style>
<g id="Layer_1">
	<polygon class="st0" points="109.1,55.6 131.3,43.5 177,37 220.5,64.9 240,99.2 243.5,112.8 275.4,106.4 298.6,106.4 298.6,327.3 
		275.4,346.4 261.8,351.7 247.9,355.1 243.5,311.6 229.3,298.4 95.8,232.5 129.9,206.8 142,182.7 130.4,172.2 96.9,153.4 77,121 
		73.5,85.8 	"/>
	<polygon class="st0" points="486.2,55.6 464,43.5 418.3,37 374.7,64.9 355.3,99.2 351.8,112.8 319.8,106.4 296.6,106.4 
		296.6,327.3 319.8,346.4 333.5,351.7 347.4,355.1 351.8,311.6 365.9,298.4 499.5,232.5 465.4,206.8 453.3,182.7 464.9,172.2 
		498.4,153.4 518.3,121 521.7,85.8 	"/>
</g>
<g id="Layer_2">
	<path d="M145.2,193.4c0,0,14.5-19,50.1-46.6c0,0,18.8-67-70.4-95.8c0,0-14.7-5.6-26.1,0.9s-21.1,52-21.1,52l12.8,39.3l46.8,32.5
		L145.2,193.4z"/>
	<path d="M231.9,259.3c-3,0-4.7-1.1-7.3-3c-12.5-9.2-18.6-10.9-19.4-11.2c-6-2.1-8.8-6.8-7-12.9c1.9-6.1,7.1-8.3,13.5-8
		c2.1,0.1,13.9,0.3,29,15.5c4.5,4.5,3.4,10.8-1.1,15.3C237.2,257.3,234.8,259.3,231.9,259.3z"/>
	<path d="M450.1,193.4c0,0-14.5-19-50.1-46.6c0,0-18.8-67,70.4-95.8c0,0,14.7-5.6,26.1,0.9s21.1,52,21.1,52l-12.8,39.3L458,175.8
		L450.1,193.4z"/>
	<g>
		<path class="st1" d="M79.4,241.8c0,0,105.1-37.9,153.9,64.5l14.5,48.8l37.3-11.8l13.5-9.5v85.9l-68.5-1.6l-21.6-12.8l-43.2,10.8
			l-73.8-12.8l-42.1-50.1l-14.9-57l20.1-44.4L79.4,241.8z"/>
		<path class="st1" d="M515.8,241.8c0,0-105.1-37.9-153.9,64.5l-14.5,48.8l-37.3-11.8l-13.5-9.5v85.9l68.5-1.6l21.6-12.8l43.2,10.8
			l73.8-12.8l42.1-50.1l14.9-57l-20.1-44.4L515.8,241.8z"/>
	</g>
	<g>
		<path d="M293,434.5c-43.1,0-72.7-12.4-84.2-18.2c-8.3,4.2-25.8,9.7-60.3,10c-0.2,0-0.4,0-0.7,0c-29.8,0-63-14.5-86.8-38
			c-16.4-16.2-36-44.1-36.3-85c-0.2-32.7,15.4-58.2,45-73.9c15-7.9,30-11.3,38-12.6c5.3-12,12.9-23.9,23.2-35.9
			c-17.2-7.5-46.2-23.3-58.9-48.9c-7.7-15.5-8.4-32.1-2.1-49.5c9.5-26.2,28.5-44.3,54.9-52.3c32.5-9.9,70.6-2.2,88.6,11
			c25.7,18.8,31,47.4,31.6,65.1c11-3.4,28.5-6.8,53.6-6.8l-0.1,18.9c-41.1-0.2-58.4,10.2-58.6,10.3c-3.1,2-7.1,2-10.3,0
			c-3.1-2-4.7-5.8-4.1-9.4c0.1-0.4,6-41.3-23.3-62.7c-12.2-8.9-43.9-16.7-71.9-8.2c-20.8,6.3-35.1,20-42.6,40.7
			c-4.5,12.5-4.1,23.8,1.2,34.6c14.7,29.7,60.6,44.2,61.1,44.4c3.1,1,5.5,3.5,6.4,6.7c0.8,3.2-0.1,6.6-2.4,8.9
			c-14.8,15.3-25.2,30.5-30.7,45.2c-1.3,3.4-4.4,5.7-8,6.1c-2.9,0.3-71.9,7.3-71.6,68.4c0.2,34.4,16.8,57.9,30.6,71.6
			c20.5,20.2,48.8,32.7,74,32.5c39.2-0.3,52-7.8,53.7-9c3-3.4,7.5-3.5,11.4-1c0.3,0.2,32.2,19.5,84.8,18.2l0.5,18.9
			C296.9,434.5,294.9,434.5,293,434.5z M201.9,398.5L201.9,398.5L201.9,398.5z"/>
		<path d="M302.3,434.5c-1.9,0-3.9,0-5.9-0.1l0.5-18.9c52.6,1.3,84.5-18,84.9-18.2c3.9-2.4,8.4-2.4,11.4,1c1.7,1.1,14.5,8.7,53.7,9
			c0.2,0,0.4,0,0.6,0c25,0,53.1-12.4,73.4-32.5c13.9-13.7,30.5-37.3,30.6-71.6c0.3-61.1-68.7-68.1-71.6-68.4c-3.6-0.3-6.7-2.7-8-6.1
			c-5.6-14.7-15.9-29.9-30.7-45.2c-2.3-2.4-3.2-5.7-2.4-8.9c0.8-3.2,3.2-5.7,6.4-6.7c0.5-0.1,46.5-14.8,61.1-44.4
			c5.4-10.8,5.7-22.1,1.2-34.6c-7.5-20.7-21.8-34.4-42.6-40.7c-28-8.5-59.8-0.7-71.9,8.2c-29.3,21.4-23.4,62.4-23.3,62.8
			c0.6,3.7-1.1,7.4-4.2,9.4c-3.1,2-7.1,2-10.3,0c-0.1,0-17.4-10.5-58.5-10.2l-0.1-18.9c25.1-0.1,42.5,3.4,53.6,6.8
			c0.6-17.7,5.9-46.3,31.6-65.1c18-13.2,56.1-20.9,88.6-11c26.4,8,45.3,26.1,54.9,52.3c6.3,17.4,5.6,34-2.1,49.5
			c-12.7,25.6-41.7,41.4-58.9,48.9c10.2,12,17.9,23.9,23.2,35.9c8,1.3,22.9,4.7,38,12.6c29.6,15.6,45.2,41.2,45,73.9
			c-0.2,40.9-19.8,68.8-36.3,85c-23.7,23.5-56.9,38-86.8,38c-0.2,0-0.4,0-0.7,0c-34.5-0.3-52-5.8-60.3-10
			C375,422.1,345.4,434.5,302.3,434.5z M393.3,398.5L393.3,398.5L393.3,398.5z"/>
	</g>
	<g>
		<path d="M253.3,362.8c-3.9,0-8.1-0.9-11.6-4c-3.1-2.7-6.4-7.8-5.1-17.1c3.6-25.1-7.1-41.1-7.6-41.8c-2.9-4.3-1.9-10.2,2.4-13.1
			c4.3-3,10.1-2,13.1,2.3c0.6,0.9,15.3,22.1,11,54.6c0.9-0.2,2-0.5,3.4-0.8l0.4-0.1c5.4-1.5,21.9-6.2,48.2-32.6
			c3.7-3.7,9.7-3.7,13.4,0c3.7,3.7,3.7,9.7,0,13.4C291,353.3,271,359,264.4,360.8l-0.4,0.1C261.7,361.6,257.6,362.8,253.3,362.8z"/>
		<path d="M342,362.8c-4.3,0-8.3-1.1-10.7-1.8l-0.4-0.1c-6.6-1.9-26.6-7.5-56.4-37.4c-3.7-3.7-3.7-9.7,0-13.4
			c3.7-3.7,9.7-3.7,13.4,0c26.3,26.4,42.8,31,48.2,32.6l0.4,0.1c1.3,0.4,2.4,0.7,3.4,0.8c-4.4-32.5,10.3-53.7,11-54.6
			c3-4.3,8.9-5.3,13.2-2.3c4.2,3,5.3,8.9,2.3,13.1c-0.5,0.8-11.2,16.7-7.6,41.8c1.3,9.3-2,14.4-5.1,17.1
			C350.1,361.8,345.9,362.8,342,362.8z"/>
	</g>
	<path d="M363.4,259.3c3,0,4.7-1.1,7.3-3c12.5-9.2,18.6-10.9,19.4-11.2c6-2.1,8.8-6.8,7-12.9c-1.9-6.1-7.1-8.3-13.5-8
		c-2.1,0.1-13.9,0.3-29,15.5c-4.5,4.5-3.4,10.8,1.1,15.3C358,257.3,360.5,259.3,363.4,259.3z"/>
</g>
</svg>
</svg>