<svg width="current" height="current" viewBox="0 0 25 25" fill="none" xmlns="http://www.w3.org/2000/svg">
<path d="M9.86884 3.9415C11.5927 3.9415 13.246 4.62632 14.465 5.8453C15.684 7.06429 16.3688 8.71759 16.3688 10.4415C16.3688 12.0515 15.7788 13.5315 14.8088 14.6715L15.0788 14.9415H15.8688L20.8688 19.9415L19.3688 21.4415L14.3688 16.4415V15.6515L14.0988 15.3815C12.9588 16.3515 11.4788 16.9415 9.86884 16.9415C8.14493 16.9415 6.49163 16.2567 5.27264 15.0377C4.05365 13.8187 3.36884 12.1654 3.36884 10.4415C3.36884 8.71759 4.05365 7.06429 5.27264 5.8453C6.49163 4.62632 8.14493 3.9415 9.86884 3.9415ZM9.86884 5.9415C7.36884 5.9415 5.36884 7.9415 5.36884 10.4415C5.36884 12.9415 7.36884 14.9415 9.86884 14.9415C12.3688 14.9415 14.3688 12.9415 14.3688 10.4415C14.3688 7.9415 12.3688 5.9415 9.86884 5.9415Z" fill="current"/>
<path d="M9.86884 3.9415C11.5927 3.9415 13.246 4.62632 14.465 5.8453C15.684 7.06429 16.3688 8.71759 16.3688 10.4415C16.3688 12.0515 15.7788 13.5315 14.8088 14.6715L15.0788 14.9415H15.8688L20.8688 19.9415L19.3688 21.4415L14.3688 16.4415V15.6515L14.0988 15.3815C12.9588 16.3515 11.4788 16.9415 9.86884 16.9415C8.14493 16.9415 6.49163 16.2567 5.27264 15.0377C4.05365 13.8187 3.36884 12.1654 3.36884 10.4415C3.36884 8.71759 4.05365 7.06429 5.27264 5.8453C6.49163 4.62632 8.14493 3.9415 9.86884 3.9415ZM9.86884 5.9415C7.36884 5.9415 5.36884 7.9415 5.36884 10.4415C5.36884 12.9415 7.36884 14.9415 9.86884 14.9415C12.3688 14.9415 14.3688 12.9415 14.3688 10.4415C14.3688 7.9415 12.3688 5.9415 9.86884 5.9415Z" fill="current"/>
</svg>
